<svg xmlns="http://www.w3.org/2000/svg" width="252" height="252" viewBox="0 0 252 252"><path fill="#fff" d="M125 1l108.7 62.8v125.5L125 252 16.3 189.3V63.8L125 1z"/><path fill="#ff9500" d="M63.6 177.4l-4.7-6.8a2.2 2.2 0 0 1 .2-2.5l17.1-20.2h-8.5a1.9 1.9 0 0 1-2.1-2.1V131a1.9 1.9 0 0 1 2.1-2.1h12a57.6 57.6 0 0 1-2.3-15.7 48.7 48.7 0 0 1 97.5 0 50.6 50.6 0 0 1-2.3 15.7h12a1.9 1.9 0 0 1 2.1 2.1v14.8a1.9 1.9 0 0 1-2.1 2.1h-10.5l16.9 20.2a2.2 2.2 0 0 1 0 2.5l-4.7 6.8a2.2 2.2 0 0 1-2.7.6l-9.9-5.2H76.1l-9.8 5.2a2.2 2.2 0 0 1-2.7-.6zm31.3-29.5H81.3l-18.1 21.5 2.9 4.1 34.8-18.3zm-25.1-14.8v10.7h112.7v-10.7zM84 129h84.3a49.8 49.8 0 0 0 2.5-15.7 44.6 44.6 0 0 0-89.2 0c-.1 5.4.3 10.9 2.4 15.7zm19.8 29.5l-19.6 10.2h28zm-3.5-10.5l17.3 20.8h14.8l17.3-20.8zm46 10.5l-8.5 10.3h28zm22.5-10.5h-13.7l-6.2 7.2 35 18.3 2.9-3.9z"/></svg>