<svg xmlns="http://www.w3.org/2000/svg"><symbol id="mars-icon-one" viewBox="0 0 252 252"><path fill="#fff" d="M125 1l108.7 62.8v125.5L125 252 16.3 189.3V63.8L125 1z"/><path fill="#ff9500" d="M63.6 177.4l-4.7-6.8a2.2 2.2 0 0 1 .2-2.5l17.1-20.2h-8.5a1.9 1.9 0 0 1-2.1-2.1V131a1.9 1.9 0 0 1 2.1-2.1h12a57.6 57.6 0 0 1-2.3-15.7 48.7 48.7 0 0 1 97.5 0 50.6 50.6 0 0 1-2.3 15.7h12a1.9 1.9 0 0 1 2.1 2.1v14.8a1.9 1.9 0 0 1-2.1 2.1h-10.5l16.9 20.2a2.2 2.2 0 0 1 0 2.5l-4.7 6.8a2.2 2.2 0 0 1-2.7.6l-9.9-5.2H76.1l-9.8 5.2a2.2 2.2 0 0 1-2.7-.6zm31.3-29.5H81.3l-18.1 21.5 2.9 4.1 34.8-18.3zm-25.1-14.8v10.7h112.7v-10.7zM84 129h84.3a49.8 49.8 0 0 0 2.5-15.7 44.6 44.6 0 0 0-89.2 0c-.1 5.4.3 10.9 2.4 15.7zm19.8 29.5l-19.6 10.2h28zm-3.5-10.5l17.3 20.8h14.8l17.3-20.8zm46 10.5l-8.5 10.3h28zm22.5-10.5h-13.7l-6.2 7.2 35 18.3 2.9-3.9z"/></symbol><symbol id="mars-icon-three" viewBox="0 0 252 252"><path fill="#fff" d="M127 0l108.7 62.8v125.5L127 251 18.3 188.3V62.8L127 0z"/><path fill="#ff9500" d="M63.9 171.9a2.1 2.1 0 1 1 0-4.1h10.3v-13H63.9a1.9 1.9 0 0 1-2.1-2.1v-40.6a1.9 1.9 0 0 1 2.1-2.1h13.6c1-29.3 22.9-45.3 49.5-45.3s48.4 16.1 49.5 45.3h13.6a1.9 1.9 0 0 1 2.1 2.1v40.6a1.9 1.9 0 0 1-2.1 2.1h-10.3v13h10.3a2.1 2.1 0 1 1 0 4.1zm2.1-57.7v36.5h122v-36.5zm12.4 40.6v13h13.1v-13zm3.3-44.8h90.7c-1-26.6-21.2-41.2-45.3-41.2S82.7 83.4 81.7 110zm14 44.7v13h20.6v-13zm24.7 0v13h13.2v-13zm55.9-14H126a2.1 2.1 0 1 1 0-4.1h50.3a2.1 2.1 0 0 1 0 4.1zm-38.5 14v13h20.6v-13zm24.7 0v13h13.2v-13z"/></symbol><symbol id="mars-icon-two" viewBox="0 0 252 252"><path fill="#fff" d="M129 1l109.1 63v126L129 253 19.9 190V64L129 1z"/><path fill="#ff9500" d="M69.2 173.6a2 2 0 0 1-2.1-2.1v-25H39.8a2.1 2.1 0 0 1 0-4.1h15.5v-13.5a2 2 0 0 1 2.1-2.1h8.1a65.6 65.6 0 0 1 63.3-50.3c.2-.2.4-.2.8 0 30.6.2 56.1 21.7 62.9 50.3h8.1a2 2 0 0 1 2.1 2.1v13.5h15.5a2.1 2.1 0 1 1 0 4.1h-27.3v25a2 2 0 0 1-2.1 2.1zM59.5 131v11.4h139v-11.5zm65.4-50.1c-26.5 1.7-48.6 20.9-55 45.9H92zm-53.6 65.5v23H127v-23zM126.9 85l-29.8 41.8h29.8zm4.1-4.3v46.1h57.1a61.5 61.5 0 0 0-57-46.2zm0 65.8v23h9.3v-23zm13.5 0v23h42.2v-23z"/></symbol></svg>