<svg xmlns="http://www.w3.org/2000/svg" width="252" height="252" viewBox="0 0 252 252"><path fill="#fff" d="M127 0l108.7 62.8v125.5L127 251 18.3 188.3V62.8L127 0z"/><path fill="#ff9500" d="M63.9 171.9a2.1 2.1 0 1 1 0-4.1h10.3v-13H63.9a1.9 1.9 0 0 1-2.1-2.1v-40.6a1.9 1.9 0 0 1 2.1-2.1h13.6c1-29.3 22.9-45.3 49.5-45.3s48.4 16.1 49.5 45.3h13.6a1.9 1.9 0 0 1 2.1 2.1v40.6a1.9 1.9 0 0 1-2.1 2.1h-10.3v13h10.3a2.1 2.1 0 1 1 0 4.1zm2.1-57.7v36.5h122v-36.5zm12.4 40.6v13h13.1v-13zm3.3-44.8h90.7c-1-26.6-21.2-41.2-45.3-41.2S82.7 83.4 81.7 110zm14 44.7v13h20.6v-13zm24.7 0v13h13.2v-13zm55.9-14H126a2.1 2.1 0 1 1 0-4.1h50.3a2.1 2.1 0 0 1 0 4.1zm-38.5 14v13h20.6v-13zm24.7 0v13h13.2v-13z"/></svg>